<svg width="800" height="400" viewBox="0 0 800 400" xmlns="http://www.w3.org/2000/svg"><mask id="satori_om-id"><rect x="0" y="0" width="800" height="400" fill="#fff"/></mask><rect x="0" y="0" width="800" height="400" fill="#f9fafb"/><clipPath id="satori_cp-id-0"><rect x="355" y="66" width="90" height="78"/></clipPath><mask id="satori_om-id-0"><rect x="355" y="66" width="90" height="78" fill="#fff"/></mask><image x="355" y="66" width="90" height="78" href="data:image/svg+xml;utf8,%3Csvg  fill=%22%234F46E5%22 xmlns=%22http://www.w3.org/2000/svg%22 width=%22NaN%22 height=%22null%22 viewBox=%220 0 75 65%22%3E%3Cpath d=%22M37.59.25l36.95 64H.64l36.95-64z%22%3E%3C/path%3E%3C/svg%3E" preserveAspectRatio="none" clip-path="url(#satori_cp-id-0)" mask="url(#satori_om-id-0)"/><mask id="satori_om-id-0-0"><rect x="355" y="66" width="0" height="78" fill="#fff"/></mask><mask id="satori_om-id-1"><rect x="237" y="174" width="326" height="58" fill="#fff"/></mask><g  ><path fill="#111827" d="M266.0 196.1L259.0 196.1Q258.8 194.1 257.2 192.9Q255.7 191.8 253.0 191.8L253.0 191.8Q251.2 191.8 250.0 192.3Q248.7 192.8 248.1 193.7Q247.4 194.6 247.4 195.7L247.4 195.7Q247.4 196.6 247.8 197.3Q248.2 198.0 249 198.5Q249.8 199.0 250.8 199.4Q251.8 199.8 252.9 200.0L252.9 200.0L256.1 200.8Q258.3 201.3 260.3 202.1Q262.2 203.0 263.6 204.2Q265.0 205.5 265.7 207.2Q266.5 208.8 266.5 211.0L266.5 211.0Q266.5 214.2 264.9 216.6Q263.3 218.9 260.3 220.2Q257.2 221.5 253.0 221.5L253.0 221.5Q248.7 221.5 245.6 220.2Q242.5 218.9 240.7 216.4Q239.0 213.8 238.9 210.0L238.9 210.0L246.1 210.0Q246.2 211.8 247.1 213.0Q248.0 214.1 249.5 214.7Q251.0 215.3 252.9 215.3L252.9 215.3Q254.8 215.3 256.2 214.8Q257.5 214.2 258.3 213.2Q259.1 212.3 259.1 211.0L259.1 211.0Q259.1 209.8 258.4 209.0Q257.7 208.2 256.4 207.7Q255.1 207.1 253.1 206.6L253.1 206.6L249.3 205.7Q244.9 204.6 242.4 202.3Q239.8 200.1 239.8 196.2L239.8 196.2Q239.8 193.0 241.5 190.6Q243.2 188.3 246.2 186.9Q249.2 185.6 253.1 185.6L253.1 185.6Q256.9 185.6 259.8 186.9Q262.8 188.3 264.4 190.6Q266.0 193.0 266.0 196.1L266.0 196.1ZM288.1 209.9L288.1 209.9L288.1 194.8L295.4 194.8L295.4 221L288.4 221L288.4 216.2L288.1 216.2Q287.3 218.5 285.2 219.9Q283.1 221.3 280.2 221.3L280.2 221.3Q277.6 221.3 275.6 220.1Q273.6 219.0 272.5 216.8Q271.3 214.6 271.3 211.5L271.3 211.5L271.3 194.8L278.6 194.8L278.6 210.2Q278.6 212.5 279.8 213.9Q281.1 215.2 283.1 215.2L283.1 215.2Q284.4 215.2 285.6 214.6Q286.7 214.0 287.4 212.8Q288.1 211.6 288.1 209.9ZM312.6 208.0L307.8 213.5L307.8 204.8L308.8 204.8L317.2 194.8L325.6 194.8L314.3 208.0L312.6 208.0ZM308.4 221L301.2 221L301.2 186.1L308.4 186.1L308.4 221ZM326.0 221L317.5 221L309.8 209.6L314.7 204.5L326.0 221ZM336.4 205.9L336.4 205.9L336.4 221L329.1 221L329.1 186.1L336.2 186.1L336.2 199.4L336.5 199.4Q337.3 197.1 339.3 195.8Q341.3 194.5 344.3 194.5L344.3 194.5Q347.0 194.5 349.0 195.7Q351.1 196.8 352.2 199.1Q353.4 201.3 353.3 204.3L353.3 204.3L353.3 221L346.1 221L346.1 205.6Q346.1 203.2 344.9 201.9Q343.6 200.5 341.4 200.5L341.4 200.5Q339.9 200.5 338.8 201.1Q337.7 201.8 337.0 203.0Q336.4 204.2 336.4 205.9ZM374.8 194.8L382.5 194.8L373.4 221L365.2 221L356.0 194.8L363.7 194.8L369.1 213.6L369.4 213.6L374.8 194.8ZM393.5 221L386.2 221L386.2 194.8L393.5 194.8L393.5 221ZM389.9 191.4L389.9 191.4Q388.3 191.4 387.1 190.4Q386.0 189.3 386.0 187.8L386.0 187.8Q386.0 186.3 387.1 185.2Q388.3 184.1 389.9 184.1L389.9 184.1Q391.5 184.1 392.7 185.2Q393.8 186.3 393.8 187.8L393.8 187.8Q393.8 189.3 392.7 190.4Q391.5 191.4 389.9 191.4ZM406.6 221L399.3 221L399.3 194.8L406.3 194.8L406.3 199.4L406.6 199.4Q407.3 196.9 409.0 195.7Q410.7 194.4 412.9 194.4L412.9 194.4Q413.4 194.4 414.1 194.5Q414.7 194.6 415.2 194.7L415.2 194.7L415.2 201.1Q414.7 201.0 413.8 200.9Q412.9 200.8 412.1 200.8L412.1 200.8Q410.5 200.8 409.3 201.4Q408.0 202.1 407.3 203.4Q406.6 204.6 406.6 206.2L406.6 206.2L406.6 221Z M457.1 196.1L450.1 196.1Q449.9 194.1 448.3 192.9Q446.8 191.8 444.1 191.8L444.1 191.8Q442.3 191.8 441.1 192.3Q439.8 192.8 439.2 193.7Q438.5 194.6 438.5 195.7L438.5 195.7Q438.5 196.6 438.9 197.3Q439.3 198.0 440.1 198.5Q440.9 199.0 441.9 199.4Q442.9 199.8 444.0 200.0L444.0 200.0L447.2 200.8Q449.4 201.3 451.3 202.1Q453.3 203.0 454.7 204.2Q456.1 205.5 456.8 207.2Q457.6 208.8 457.6 211.0L457.6 211.0Q457.6 214.2 456.0 216.6Q454.4 218.9 451.4 220.2Q448.3 221.5 444.1 221.5L444.1 221.5Q439.8 221.5 436.7 220.2Q433.6 218.9 431.8 216.4Q430.1 213.8 430.0 210.0L430.0 210.0L437.1 210.0Q437.3 211.8 438.2 213.0Q439.1 214.1 440.6 214.7Q442.1 215.3 444.0 215.3L444.0 215.3Q445.9 215.3 447.2 214.8Q448.6 214.2 449.4 213.2Q450.2 212.3 450.2 211.0L450.2 211.0Q450.2 209.8 449.5 209.0Q448.8 208.2 447.5 207.7Q446.1 207.1 444.2 206.6L444.2 206.6L440.4 205.7Q436.0 204.6 433.5 202.3Q430.9 200.1 430.9 196.2L430.9 196.2Q430.9 193.0 432.6 190.6Q434.3 188.3 437.3 186.9Q440.3 185.6 444.2 185.6L444.2 185.6Q448.0 185.6 450.9 186.9Q453.9 188.3 455.5 190.6Q457.1 193.0 457.1 196.1L457.1 196.1ZM469.7 221L462.4 221L462.4 194.8L469.7 194.8L469.7 221ZM466.1 191.4L466.1 191.4Q464.5 191.4 463.3 190.4Q462.2 189.3 462.2 187.8L462.2 187.8Q462.2 186.3 463.3 185.2Q464.5 184.1 466.1 184.1L466.1 184.1Q467.7 184.1 468.8 185.2Q470.0 186.3 470.0 187.8L470.0 187.8Q470.0 189.3 468.8 190.4Q467.7 191.4 466.1 191.4ZM482.7 205.9L482.7 205.9L482.7 221L475.5 221L475.5 194.8L482.4 194.8L482.4 199.4L482.7 199.4Q483.6 197.2 485.6 195.8Q487.7 194.5 490.6 194.5L490.6 194.5Q493.3 194.5 495.3 195.7Q497.4 196.9 498.5 199.1Q499.6 201.3 499.6 204.3L499.6 204.3L499.6 221L492.4 221L492.4 205.6Q492.4 203.2 491.1 201.9Q489.9 200.5 487.7 200.5L487.7 200.5Q486.2 200.5 485.1 201.1Q484.0 201.8 483.4 203.0Q482.8 204.2 482.7 205.9ZM517.1 231.4L517.1 231.4Q513.6 231.4 511.1 230.4Q508.6 229.4 507.1 227.8Q505.6 226.1 505.2 224.1L505.2 224.1L511.9 223.2Q512.2 223.9 512.8 224.6Q513.5 225.3 514.6 225.7Q515.7 226.1 517.3 226.1L517.3 226.1Q519.7 226.1 521.2 225.0Q522.8 223.8 522.8 221.2L522.8 221.2L522.8 216.4L522.4 216.4Q522.0 217.5 521.0 218.4Q520.1 219.4 518.6 220.0Q517.1 220.6 515.0 220.6L515.0 220.6Q512.0 220.6 509.6 219.3Q507.2 217.9 505.8 215.0Q504.4 212.2 504.4 207.9L504.4 207.9Q504.4 203.4 505.8 200.4Q507.3 197.4 509.7 196.0Q512.1 194.5 515.0 194.5L515.0 194.5Q517.2 194.5 518.6 195.2Q520.1 196.0 521.0 197.1Q521.9 198.2 522.4 199.2L522.4 199.2L522.7 199.2L522.7 194.8L529.9 194.8L529.9 221.3Q529.9 224.6 528.3 226.8Q526.7 229.1 523.8 230.2Q520.9 231.4 517.1 231.4ZM517.3 215.2L517.3 215.2Q519.0 215.2 520.3 214.3Q521.5 213.4 522.1 211.8Q522.8 210.1 522.8 207.8L522.8 207.8Q522.8 205.5 522.1 203.8Q521.5 202.1 520.3 201.2Q519.0 200.3 517.3 200.3L517.3 200.3Q515.5 200.3 514.3 201.2Q513.0 202.2 512.4 203.9Q511.8 205.6 511.8 207.8L511.8 207.8Q511.8 210.1 512.4 211.7Q513.1 213.4 514.3 214.3Q515.5 215.2 517.3 215.2ZM543.0 205.9L543.0 205.9L543.0 221L535.7 221L535.7 186.1L542.8 186.1L542.8 199.4L543.1 199.4Q544.0 197.1 545.9 195.8Q547.9 194.5 550.9 194.5L550.9 194.5Q553.6 194.5 555.7 195.7Q557.7 196.8 558.8 199.1Q560.0 201.3 560.0 204.3L560.0 204.3L560.0 221L552.7 221L552.7 205.6Q552.7 203.2 551.5 201.9Q550.2 200.5 548.0 200.5L548.0 200.5Q546.5 200.5 545.4 201.1Q544.3 201.8 543.6 203.0Q543.0 204.2 543.0 205.9Z "/></g><mask id="satori_om-id-2"><rect x="61" y="242" width="678" height="34" fill="#fff"/></mask><g  ><path fill="#6B7280" d="M65.9 269L63.5 269L63.5 248.6L75.7 248.6L75.7 250.8L65.9 250.8L65.9 257.7L74.8 257.7L74.8 259.9L65.9 259.9L65.9 269ZM88.2 262.8L88.2 262.8L88.2 253.7L90.6 253.7L90.6 269L88.2 269L88.2 266.4L88.1 266.4Q87.5 267.6 86.4 268.4Q85.3 269.2 83.6 269.2L83.6 269.2Q82.1 269.2 81.0 268.6Q79.9 267.9 79.3 266.7Q78.6 265.4 78.6 263.4L78.6 263.4L78.6 253.7L81.0 253.7L81.0 263.3Q81.0 264.9 81.9 265.9Q82.8 266.9 84.3 266.9L84.3 266.9Q85.2 266.9 86.1 266.5Q87.0 266.0 87.6 265.1Q88.2 264.2 88.2 262.8ZM94.9 248.6L97.2 248.6L97.2 269L94.9 269L94.9 248.6ZM101.5 248.6L103.9 248.6L103.9 269L101.5 269L101.5 248.6ZM108.0 259.2L116.9 259.2L116.9 261.4L108.0 261.4L108.0 259.2ZM134.9 253.7L132.5 253.7Q132.3 252.2 131.1 251.4Q129.8 250.5 127.9 250.5L127.9 250.5Q126.6 250.5 125.6 251.0Q124.6 251.4 124.0 252.2Q123.4 253.0 123.4 253.9L123.4 253.9Q123.4 254.7 123.8 255.3Q124.2 255.9 124.8 256.3Q125.5 256.7 126.1 256.9Q126.8 257.2 127.4 257.3L127.4 257.3L129.4 257.9Q130.2 258.1 131.2 258.4Q132.2 258.8 133.1 259.4Q134.0 260.1 134.6 261.1Q135.2 262.0 135.2 263.5L135.2 263.5Q135.2 265.1 134.3 266.5Q133.5 267.8 131.8 268.6Q130.2 269.4 127.8 269.4L127.8 269.4Q125.6 269.4 124.0 268.7Q122.4 267.9 121.5 266.7Q120.6 265.4 120.5 263.8L120.5 263.8L123.0 263.8Q123.1 264.9 123.8 265.7Q124.5 266.4 125.6 266.8Q126.6 267.1 127.8 267.1L127.8 267.1Q129.2 267.1 130.4 266.7Q131.5 266.2 132.1 265.4Q132.8 264.5 132.8 263.4L132.8 263.4Q132.8 262.4 132.2 261.8Q131.7 261.1 130.7 260.7Q129.8 260.3 128.7 260.1L128.7 260.1L126.2 259.3Q123.8 258.6 122.4 257.4Q121.1 256.1 121.1 254.0L121.1 254.0Q121.1 252.3 122.0 251.1Q122.9 249.8 124.5 249.1Q126.1 248.4 128.0 248.4L128.0 248.4Q130.0 248.4 131.5 249.1Q133.0 249.8 133.9 251.0Q134.8 252.2 134.9 253.7L134.9 253.7ZM137.6 253.7L145.6 253.7L145.6 255.7L137.6 255.7L137.6 253.7ZM139.9 265.3L139.9 250.1L142.3 250.1L142.3 264.6Q142.3 265.6 142.6 266.1Q142.9 266.6 143.3 266.8Q143.8 266.9 144.3 266.9L144.3 266.9Q144.7 266.9 145.0 266.9Q145.2 266.8 145.4 266.8L145.4 266.8L145.8 268.9Q145.6 269.0 145.2 269.1Q144.7 269.2 144.1 269.2L144.1 269.2Q143.1 269.2 142.1 268.8Q141.2 268.3 140.6 267.5Q139.9 266.6 139.9 265.3L139.9 265.3ZM153.6 269.4L153.6 269.4Q152.1 269.4 151.0 268.8Q149.8 268.3 149.1 267.2Q148.4 266.2 148.4 264.7L148.4 264.7Q148.4 263.4 148.9 262.5Q149.4 261.7 150.3 261.2Q151.1 260.8 152.2 260.5Q153.2 260.3 154.3 260.2L154.3 260.2Q155.7 260.0 156.6 259.9Q157.4 259.8 157.8 259.6Q158.2 259.3 158.2 258.8L158.2 258.8L158.2 258.7Q158.2 257.2 157.4 256.4Q156.6 255.6 155.0 255.6L155.0 255.6Q153.3 255.6 152.4 256.3Q151.4 257.1 151.0 257.9L151.0 257.9L148.8 257.1Q149.4 255.7 150.4 254.9Q151.4 254.2 152.6 253.8Q153.8 253.5 154.9 253.5L154.9 253.5Q155.7 253.5 156.6 253.7Q157.6 253.9 158.5 254.4Q159.4 255.0 160.0 256.0Q160.6 257.1 160.6 258.9L160.6 258.9L160.6 269L158.2 269L158.2 266.9L158.1 266.9Q157.9 267.4 157.3 268.0Q156.8 268.6 155.8 269.0Q154.9 269.4 153.6 269.4ZM153.9 267.3L153.9 267.3Q155.3 267.3 156.3 266.7Q157.3 266.2 157.8 265.3Q158.2 264.4 158.2 263.5L158.2 263.5L158.2 261.3Q158.1 261.5 157.6 261.6Q157.1 261.8 156.4 261.9Q155.8 262 155.2 262.1Q154.6 262.1 154.2 262.2L154.2 262.2Q153.3 262.3 152.5 262.6Q151.7 262.8 151.2 263.4Q150.7 263.9 150.7 264.8L150.7 264.8Q150.7 266.0 151.6 266.6Q152.5 267.3 153.9 267.3ZM171.1 269.3L171.1 269.3Q168.9 269.3 167.4 268.3Q165.8 267.3 165.0 265.5Q164.2 263.7 164.2 261.4L164.2 261.4Q164.2 259.1 165.0 257.3Q165.9 255.5 167.4 254.5Q169.0 253.5 171.1 253.5L171.1 253.5Q172.7 253.5 174.0 254.1Q175.2 254.7 176.1 255.8Q176.9 256.9 177.1 258.3L177.1 258.3L174.7 258.3Q174.5 257.3 173.6 256.4Q172.6 255.6 171.1 255.6L171.1 255.6Q169.7 255.6 168.7 256.3Q167.7 257.1 167.1 258.3Q166.5 259.6 166.5 261.4L166.5 261.4Q166.5 263.1 167.1 264.4Q167.6 265.8 168.7 266.5Q169.7 267.2 171.1 267.2L171.1 267.2Q172.0 267.2 172.8 266.9Q173.5 266.6 174.0 266.0Q174.5 265.4 174.7 264.5L174.7 264.5L177.1 264.5Q176.9 265.9 176.1 267.0Q175.3 268.1 174.1 268.7Q172.8 269.3 171.1 269.3ZM185.4 260.9L182.7 263.4L182.7 260.5L183.1 260.5L189.8 253.7L192.7 253.7L185.6 260.9L185.4 260.9ZM182.9 269L180.5 269L180.5 248.6L182.9 248.6L182.9 269ZM193.2 269L190.2 269L184.3 261.4L185.9 259.8L193.2 269Z M211.2 269L211.2 269L204.9 269L204.9 248.6L211.5 248.6Q214.4 248.6 216.5 249.9Q218.6 251.1 219.8 253.3Q220.9 255.6 220.9 258.8L220.9 258.8Q220.9 262.0 219.8 264.3Q218.6 266.5 216.5 267.8Q214.3 269 211.2 269ZM207.4 250.8L207.4 266.8L211.0 266.8Q213.5 266.8 215.2 265.8Q216.9 264.9 217.7 263.1Q218.5 261.3 218.5 258.8L218.5 258.8Q218.5 256.3 217.7 254.5Q216.9 252.7 215.3 251.8Q213.7 250.8 211.3 250.8L211.3 250.8L207.4 250.8ZM231.1 269.3L231.1 269.3Q228.9 269.3 227.3 268.3Q225.7 267.4 224.8 265.6Q224.0 263.8 224.0 261.5L224.0 261.5Q224.0 259.1 224.8 257.3Q225.7 255.5 227.3 254.5Q228.8 253.5 230.9 253.5L230.9 253.5Q232.1 253.5 233.2 253.9Q234.4 254.3 235.3 255.2Q236.3 256.1 236.9 257.6Q237.4 259.0 237.4 261.2L237.4 261.2L237.4 262.2L225.7 262.2L225.7 260.1L235.0 260.1Q235.0 258.8 234.5 257.8Q234.0 256.8 233.1 256.2Q232.1 255.6 230.9 255.6L230.9 255.6Q229.5 255.6 228.4 256.3Q227.4 257.0 226.9 258.1Q226.3 259.2 226.3 260.5L226.3 260.5L226.3 261.8Q226.3 263.6 226.9 264.8Q227.5 266.0 228.6 266.6Q229.7 267.2 231.1 267.2L231.1 267.2Q232.0 267.2 232.8 266.9Q233.5 266.7 234.1 266.2Q234.6 265.6 234.9 264.8L234.9 264.8L237.2 265.5Q236.8 266.6 236.0 267.5Q235.1 268.4 233.9 268.8Q232.7 269.3 231.1 269.3ZM250.5 253.7L253.0 253.7L247.4 269L245.0 269L239.3 253.7L241.9 253.7L246.1 265.9L246.3 265.9L250.5 253.7ZM262.0 269.3L262.0 269.3Q259.8 269.3 258.2 268.3Q256.6 267.4 255.7 265.6Q254.9 263.8 254.9 261.5L254.9 261.5Q254.9 259.1 255.7 257.3Q256.6 255.5 258.1 254.5Q259.7 253.5 261.7 253.5L261.7 253.5Q262.9 253.5 264.1 253.9Q265.3 254.3 266.2 255.2Q267.2 256.1 267.7 257.6Q268.3 259.0 268.3 261.2L268.3 261.2L268.3 262.2L256.5 262.2L256.5 260.1L265.9 260.1Q265.9 258.8 265.4 257.8Q264.9 256.8 263.9 256.2Q263.0 255.6 261.7 255.6L261.7 255.6Q260.3 255.6 259.3 256.3Q258.3 257.0 257.7 258.1Q257.2 259.2 257.2 260.5L257.2 260.5L257.2 261.8Q257.2 263.6 257.8 264.8Q258.4 266.0 259.5 266.6Q260.5 267.2 262.0 267.2L262.0 267.2Q262.9 267.2 263.6 266.9Q264.4 266.7 264.9 266.2Q265.5 265.6 265.8 264.8L265.8 264.8L268.1 265.5Q267.7 266.6 266.9 267.5Q266.0 268.4 264.8 268.8Q263.5 269.3 262.0 269.3ZM271.9 248.6L274.2 248.6L274.2 269L271.9 269L271.9 248.6ZM284.7 269.3L284.7 269.3Q282.7 269.3 281.1 268.3Q279.5 267.3 278.7 265.6Q277.8 263.8 277.8 261.4L277.8 261.4Q277.8 259.1 278.7 257.3Q279.5 255.5 281.1 254.5Q282.7 253.5 284.7 253.5L284.7 253.5Q286.8 253.5 288.3 254.5Q289.9 255.5 290.8 257.3Q291.6 259.1 291.6 261.4L291.6 261.4Q291.6 263.8 290.8 265.6Q289.9 267.3 288.3 268.3Q286.8 269.3 284.7 269.3ZM284.7 267.2L284.7 267.2Q286.3 267.2 287.3 266.4Q288.3 265.6 288.8 264.3Q289.3 263.0 289.3 261.4L289.3 261.4Q289.3 259.9 288.8 258.6Q288.3 257.3 287.3 256.5Q286.3 255.6 284.7 255.6L284.7 255.6Q283.2 255.6 282.1 256.5Q281.1 257.3 280.6 258.6Q280.1 259.9 280.1 261.4L280.1 261.4Q280.1 263.0 280.6 264.3Q281.1 265.6 282.1 266.4Q283.2 267.2 284.7 267.2ZM297.6 274.7L295.2 274.7L295.2 253.7L297.5 253.7L297.5 256.2L297.8 256.2Q298.0 255.8 298.5 255.1Q299.0 254.5 299.8 254.0Q300.7 253.5 302.2 253.5L302.2 253.5Q304.1 253.5 305.6 254.5Q307.1 255.5 307.9 257.2Q308.7 259.0 308.7 261.4L308.7 261.4Q308.7 263.8 307.9 265.6Q307.1 267.4 305.6 268.3Q304.1 269.3 302.2 269.3L302.2 269.3Q300.8 269.3 299.9 268.8Q299.0 268.3 298.5 267.7Q298.0 267.1 297.8 266.7L297.8 266.7L297.6 266.7L297.6 274.7ZM297.5 261.4L297.5 261.4Q297.5 263.1 298.0 264.4Q298.5 265.7 299.5 266.5Q300.5 267.2 301.9 267.2L301.9 267.2Q303.4 267.2 304.4 266.4Q305.4 265.6 305.9 264.3Q306.4 263.0 306.4 261.4L306.4 261.4Q306.4 259.8 305.9 258.5Q305.4 257.2 304.4 256.4Q303.4 255.6 301.9 255.6L301.9 255.6Q300.5 255.6 299.5 256.4Q298.5 257.1 298.0 258.4Q297.5 259.7 297.5 261.4ZM318.7 269.3L318.7 269.3Q316.5 269.3 314.9 268.3Q313.3 267.4 312.4 265.6Q311.6 263.8 311.6 261.5L311.6 261.5Q311.6 259.1 312.4 257.3Q313.3 255.5 314.8 254.5Q316.4 253.5 318.4 253.5L318.4 253.5Q319.6 253.5 320.8 253.9Q322.0 254.3 322.9 255.2Q323.9 256.1 324.4 257.6Q325.0 259.0 325.0 261.2L325.0 261.2L325.0 262.2L313.2 262.2L313.2 260.1L322.6 260.1Q322.6 258.8 322.1 257.8Q321.6 256.8 320.7 256.2Q319.7 255.6 318.4 255.6L318.4 255.6Q317.0 255.6 316.0 256.3Q315.0 257.0 314.5 258.1Q313.9 259.2 313.9 260.5L313.9 260.5L313.9 261.8Q313.9 263.6 314.5 264.8Q315.1 266.0 316.2 266.6Q317.3 267.2 318.7 267.2L318.7 267.2Q319.6 267.2 320.4 266.9Q321.1 266.7 321.7 266.2Q322.2 265.6 322.5 264.8L322.5 264.8L324.8 265.5Q324.4 266.6 323.6 267.5Q322.7 268.4 321.5 268.8Q320.2 269.3 318.7 269.3ZM330.9 269L328.6 269L328.6 253.7L330.9 253.7L330.9 256.0L331.0 256.0Q331.4 254.9 332.5 254.2Q333.6 253.5 335.0 253.5L335.0 253.5Q335.3 253.5 335.6 253.5Q336.0 253.5 336.2 253.5L336.2 253.5L336.2 255.9Q336.1 255.9 335.7 255.8Q335.3 255.8 334.8 255.8L334.8 255.8Q333.7 255.8 332.8 256.2Q331.9 256.7 331.4 257.5Q330.9 258.3 330.9 259.3L330.9 259.3L330.9 269Z M349.4 242.1L351.3 242.1L351.3 275.6L349.4 275.6L349.4 242.1Z M367.7 269L365.3 269L365.3 248.6L372.1 248.6Q374.5 248.6 376.1 249.4Q377.6 250.3 378.3 251.7Q379.1 253.1 379.1 254.9L379.1 254.9Q379.1 256.7 378.3 258.1Q377.6 259.5 376.1 260.3Q374.5 261.0 372.2 261.0L372.2 261.0L366.6 261.0L366.6 258.8L372.1 258.8Q373.7 258.8 374.7 258.3Q375.7 257.9 376.2 257.0Q376.6 256.1 376.6 254.9L376.6 254.9Q376.6 253.7 376.2 252.7Q375.7 251.8 374.7 251.3Q373.7 250.8 372.1 250.8L372.1 250.8L367.7 250.8L367.7 269ZM372.1 259.9L374.8 259.9L379.9 269L377.0 269L372.1 259.9ZM389.1 269.3L389.1 269.3Q386.9 269.3 385.3 268.3Q383.7 267.4 382.8 265.6Q382.0 263.8 382.0 261.5L382.0 261.5Q382.0 259.1 382.8 257.3Q383.7 255.5 385.2 254.5Q386.8 253.5 388.8 253.5L388.8 253.5Q390.0 253.5 391.2 253.9Q392.4 254.3 393.3 255.2Q394.3 256.1 394.8 257.6Q395.4 259.0 395.4 261.2L395.4 261.2L395.4 262.2L383.6 262.2L383.6 260.1L393.0 260.1Q393.0 258.8 392.5 257.8Q392.0 256.8 391.1 256.2Q390.1 255.6 388.8 255.6L388.8 255.6Q387.4 255.6 386.4 256.3Q385.4 257.0 384.9 258.1Q384.3 259.2 384.3 260.5L384.3 260.5L384.3 261.8Q384.3 263.6 384.9 264.8Q385.5 266.0 386.6 266.6Q387.7 267.2 389.1 267.2L389.1 267.2Q390.0 267.2 390.8 266.9Q391.5 266.7 392.1 266.2Q392.6 265.6 392.9 264.8L392.9 264.8L395.2 265.5Q394.8 266.6 394.0 267.5Q393.1 268.4 391.9 268.8Q390.6 269.3 389.1 269.3ZM403.5 269.4L403.5 269.4Q402.0 269.4 400.8 268.8Q399.7 268.3 399.0 267.2Q398.3 266.2 398.3 264.7L398.3 264.7Q398.3 263.4 398.8 262.5Q399.3 261.7 400.2 261.2Q401.0 260.8 402.1 260.5Q403.1 260.3 404.2 260.2L404.2 260.2Q405.6 260.0 406.5 259.9Q407.3 259.8 407.7 259.6Q408.1 259.3 408.1 258.8L408.1 258.8L408.1 258.7Q408.1 257.2 407.3 256.4Q406.5 255.6 404.9 255.6L404.9 255.6Q403.2 255.6 402.3 256.3Q401.3 257.1 400.9 257.9L400.9 257.9L398.7 257.1Q399.3 255.7 400.3 254.9Q401.3 254.2 402.5 253.8Q403.7 253.5 404.8 253.5L404.8 253.5Q405.6 253.5 406.5 253.7Q407.5 253.9 408.4 254.4Q409.3 255.0 409.9 256.0Q410.5 257.1 410.5 258.9L410.5 258.9L410.5 269L408.1 269L408.1 266.9L408.0 266.9Q407.8 267.4 407.2 268.0Q406.7 268.6 405.7 269.0Q404.8 269.4 403.5 269.4ZM403.8 267.3L403.8 267.3Q405.2 267.3 406.2 266.7Q407.2 266.2 407.6 265.3Q408.1 264.4 408.1 263.5L408.1 263.5L408.1 261.3Q408.0 261.5 407.5 261.6Q407.0 261.8 406.3 261.9Q405.7 262 405.1 262.1Q404.5 262.1 404.1 262.2L404.1 262.2Q403.2 262.3 402.4 262.6Q401.6 262.8 401.1 263.4Q400.6 263.9 400.6 264.8L400.6 264.8Q400.6 266.0 401.5 266.6Q402.4 267.3 403.8 267.3ZM421.0 269.3L421.0 269.3Q418.8 269.3 417.3 268.3Q415.7 267.3 414.9 265.5Q414.1 263.7 414.1 261.4L414.1 261.4Q414.1 259.1 414.9 257.3Q415.8 255.5 417.3 254.5Q418.9 253.5 420.9 253.5L420.9 253.5Q422.6 253.5 423.8 254.1Q425.1 254.7 426.0 255.8Q426.8 256.9 427.0 258.3L427.0 258.3L424.6 258.3Q424.4 257.3 423.5 256.4Q422.5 255.6 421.0 255.6L421.0 255.6Q419.6 255.6 418.6 256.3Q417.6 257.1 417.0 258.3Q416.4 259.6 416.4 261.4L416.4 261.4Q416.4 263.1 417.0 264.4Q417.5 265.8 418.6 266.5Q419.6 267.2 421.0 267.2L421.0 267.2Q421.9 267.2 422.6 266.9Q423.4 266.6 423.9 266.0Q424.4 265.4 424.6 264.5L424.6 264.5L427.0 264.5Q426.8 265.9 426.0 267.0Q425.2 268.1 424.0 268.7Q422.7 269.3 421.0 269.3ZM429.1 253.7L437.1 253.7L437.1 255.7L429.1 255.7L429.1 253.7ZM431.4 265.3L431.4 250.1L433.8 250.1L433.8 264.6Q433.8 265.6 434.1 266.1Q434.4 266.6 434.8 266.8Q435.3 266.9 435.8 266.9L435.8 266.9Q436.2 266.9 436.5 266.9Q436.7 266.8 436.9 266.8L436.9 266.8L437.3 268.9Q437.1 269.0 436.7 269.1Q436.2 269.2 435.6 269.2L435.6 269.2Q434.6 269.2 433.6 268.8Q432.7 268.3 432.1 267.5Q431.4 266.6 431.4 265.3L431.4 265.3Z M454.4 265.3L454.4 265.3Q453.1 265.3 452.2 264.7Q451.2 264.1 450.6 263.1Q450.0 262.1 450.0 260.9L450.0 260.9Q450.0 259.7 450.6 258.7Q451.2 257.7 452.2 257.1Q453.1 256.5 454.4 256.5L454.4 256.5Q455.6 256.5 456.6 257.1Q457.5 257.7 458.1 258.7Q458.7 259.7 458.7 260.9L458.7 260.9Q458.7 262.1 458.1 263.1Q457.5 264.1 456.6 264.7Q455.6 265.3 454.4 265.3Z M486.3 248.6L488.7 248.6L488.7 269L486.3 269L475.2 253.0L475.0 253.0L475.0 269L472.6 269L472.6 248.6L475.0 248.6L486.1 264.7L486.3 264.7L486.3 248.6ZM499.7 269.3L499.7 269.3Q497.5 269.3 495.9 268.3Q494.3 267.4 493.5 265.6Q492.6 263.8 492.6 261.5L492.6 261.5Q492.6 259.1 493.5 257.3Q494.3 255.5 495.9 254.5Q497.4 253.5 499.5 253.5L499.5 253.5Q500.7 253.5 501.9 253.9Q503.0 254.3 504.0 255.2Q504.9 256.1 505.5 257.6Q506.1 259.0 506.1 261.2L506.1 261.2L506.1 262.2L494.3 262.2L494.3 260.1L503.7 260.1Q503.7 258.8 503.2 257.8Q502.6 256.8 501.7 256.2Q500.8 255.6 499.5 255.6L499.5 255.6Q498.1 255.6 497.1 256.3Q496.1 257.0 495.5 258.1Q495.0 259.2 495.0 260.5L495.0 260.5L495.0 261.8Q495.0 263.6 495.6 264.8Q496.2 266.0 497.2 266.6Q498.3 267.2 499.7 267.2L499.7 267.2Q500.7 267.2 501.4 266.9Q502.2 266.7 502.7 266.2Q503.3 265.6 503.6 264.8L503.6 264.8L505.8 265.5Q505.5 266.6 504.6 267.5Q503.8 268.4 502.5 268.8Q501.3 269.3 499.7 269.3ZM508.3 253.7L511.0 253.7L514.6 260.0L518.3 253.7L521.0 253.7L516.1 261.4L521.0 269L518.3 269L514.6 263.1L511.0 269L508.3 269L513.1 261.4L508.3 253.7ZM523.1 253.7L531.0 253.7L531.0 255.7L523.1 255.7L523.1 253.7ZM525.4 265.3L525.4 250.1L527.7 250.1L527.7 264.6Q527.7 265.6 528.0 266.1Q528.3 266.6 528.8 266.8Q529.2 266.9 529.8 266.9L529.8 266.9Q530.1 266.9 530.4 266.9Q530.6 266.8 530.8 266.8L530.8 266.8L531.3 268.9Q531.0 269.0 530.6 269.1Q530.2 269.2 529.5 269.2L529.5 269.2Q528.5 269.2 527.6 268.8Q526.6 268.3 526.0 267.5Q525.4 266.6 525.4 265.3L525.4 265.3ZM536.2 269.2L536.2 269.2Q535.5 269.2 535.0 268.6Q534.5 268.1 534.5 267.4L534.5 267.4Q534.5 266.6 535.0 266.1Q535.5 265.6 536.2 265.6L536.2 265.6Q537.0 265.6 537.5 266.1Q538.0 266.6 538.0 267.4L538.0 267.4Q538.0 267.9 537.8 268.3Q537.5 268.7 537.1 268.9Q536.7 269.2 536.2 269.2ZM542.2 270.1L542.2 253.7L544.6 253.7L544.6 270.1Q544.6 271.5 544.1 272.6Q543.6 273.6 542.7 274.2Q541.7 274.7 540.2 274.7L540.2 274.7Q540.1 274.7 540.0 274.7Q539.9 274.7 539.7 274.7L539.7 274.7L539.7 272.5Q539.9 272.5 540.0 272.5Q540.1 272.5 540.2 272.5L540.2 272.5Q541.3 272.5 541.8 271.9Q542.2 271.3 542.2 270.1L542.2 270.1ZM543.4 251.2L543.4 251.2Q542.7 251.2 542.2 250.7Q541.7 250.2 541.7 249.6L541.7 249.6Q541.7 248.9 542.2 248.5Q542.7 248 543.4 248L543.4 248Q544.1 248 544.6 248.5Q545.1 248.9 545.1 249.6L545.1 249.6Q545.1 250.2 544.6 250.7Q544.1 251.2 543.4 251.2ZM559.7 257.1L559.7 257.1L557.6 257.7Q557.4 257.2 557.0 256.7Q556.6 256.2 556.0 255.9Q555.3 255.6 554.3 255.6L554.3 255.6Q552.9 255.6 552.0 256.2Q551.0 256.8 551.0 257.8L551.0 257.8Q551.0 258.7 551.7 259.2Q552.3 259.7 553.7 260.1L553.7 260.1L555.9 260.6Q558.0 261.1 559.0 262.1Q560.0 263.1 560.0 264.7L560.0 264.7Q560.0 266.1 559.2 267.1Q558.5 268.1 557.1 268.7Q555.8 269.3 554.0 269.3L554.0 269.3Q551.7 269.3 550.2 268.3Q548.6 267.3 548.2 265.3L548.2 265.3L550.4 264.8Q550.8 266.0 551.7 266.6Q552.5 267.3 554.0 267.3L554.0 267.3Q555.6 267.3 556.6 266.5Q557.6 265.8 557.6 264.9L557.6 264.9Q557.6 264.1 557.0 263.5Q556.4 263.0 555.3 262.7L555.3 262.7L552.8 262.1Q550.7 261.6 549.7 260.6Q548.7 259.5 548.7 257.9L548.7 257.9Q548.7 256.7 549.4 255.7Q550.2 254.7 551.4 254.1Q552.7 253.5 554.3 253.5L554.3 253.5Q556.6 253.5 557.9 254.5Q559.2 255.5 559.7 257.1Z M577.5 265.3L577.5 265.3Q576.3 265.3 575.3 264.7Q574.3 264.1 573.7 263.1Q573.2 262.1 573.2 260.9L573.2 260.9Q573.2 259.7 573.7 258.7Q574.3 257.7 575.3 257.1Q576.3 256.5 577.5 256.5L577.5 256.5Q578.7 256.5 579.7 257.1Q580.7 257.7 581.3 258.7Q581.9 259.7 581.9 260.9L581.9 260.9Q581.9 262.1 581.3 263.1Q580.7 264.1 579.7 264.7Q578.7 265.3 577.5 265.3Z M601.0 250.8L594.6 250.8L594.6 248.6L609.9 248.6L609.9 250.8L603.5 250.8L603.5 269L601.0 269L601.0 250.8ZM613.2 274.7L613.2 274.7Q612.6 274.7 612.1 274.6Q611.6 274.5 611.5 274.4L611.5 274.4L612.1 272.4Q612.9 272.6 613.6 272.5Q614.2 272.5 614.7 272.0Q615.2 271.4 615.7 270.3L615.7 270.3L616.1 269.1L610.5 253.7L613.0 253.7L617.2 265.9L617.4 265.9L621.6 253.7L624.1 253.7L617.7 271.2Q617.2 272.4 616.6 273.2Q615.9 274.0 615.1 274.3Q614.2 274.7 613.2 274.7ZM629.6 274.7L627.2 274.7L627.2 253.7L629.5 253.7L629.5 256.2L629.8 256.2Q630.0 255.8 630.5 255.1Q631.0 254.5 631.8 254.0Q632.7 253.5 634.2 253.5L634.2 253.5Q636.1 253.5 637.6 254.5Q639.1 255.5 639.9 257.2Q640.7 259.0 640.7 261.4L640.7 261.4Q640.7 263.8 639.9 265.6Q639.1 267.4 637.6 268.3Q636.2 269.3 634.2 269.3L634.2 269.3Q632.8 269.3 631.9 268.8Q631.0 268.3 630.5 267.7Q630.0 267.1 629.8 266.7L629.8 266.7L629.6 266.7L629.6 274.7ZM629.6 261.4L629.6 261.4Q629.6 263.1 630.1 264.4Q630.6 265.7 631.5 266.5Q632.5 267.2 633.9 267.2L633.9 267.2Q635.4 267.2 636.4 266.4Q637.4 265.6 637.9 264.3Q638.4 263.0 638.4 261.4L638.4 261.4Q638.4 259.8 637.9 258.5Q637.4 257.2 636.4 256.4Q635.4 255.6 633.9 255.6L633.9 255.6Q632.5 255.6 631.5 256.4Q630.5 257.1 630.0 258.4Q629.6 259.7 629.6 261.4ZM650.7 269.3L650.7 269.3Q648.5 269.3 646.9 268.3Q645.3 267.4 644.5 265.6Q643.6 263.8 643.6 261.5L643.6 261.5Q643.6 259.1 644.5 257.3Q645.3 255.5 646.9 254.5Q648.4 253.5 650.5 253.5L650.5 253.5Q651.7 253.5 652.8 253.9Q654.0 254.3 654.9 255.2Q655.9 256.1 656.5 257.6Q657.0 259.0 657.0 261.2L657.0 261.2L657.0 262.2L645.3 262.2L645.3 260.1L654.6 260.1Q654.6 258.8 654.1 257.8Q653.6 256.8 652.7 256.2Q651.7 255.6 650.5 255.6L650.5 255.6Q649.1 255.6 648.1 256.3Q647.0 257.0 646.5 258.1Q645.9 259.2 645.9 260.5L645.9 260.5L645.9 261.8Q645.9 263.6 646.5 264.8Q647.1 266.0 648.2 266.6Q649.3 267.2 650.7 267.2L650.7 267.2Q651.6 267.2 652.4 266.9Q653.1 266.7 653.7 266.2Q654.2 265.6 654.5 264.8L654.5 264.8L656.8 265.5Q656.4 266.6 655.6 267.5Q654.7 268.4 653.5 268.8Q652.3 269.3 650.7 269.3ZM674.5 253.7L672.1 253.7Q671.9 252.2 670.6 251.4Q669.3 250.5 667.5 250.5L667.5 250.5Q666.1 250.5 665.1 251.0Q664.1 251.4 663.6 252.2Q663.0 253.0 663.0 253.9L663.0 253.9Q663.0 254.7 663.4 255.3Q663.8 255.9 664.4 256.3Q665.0 256.7 665.7 256.9Q666.4 257.2 666.9 257.3L666.9 257.3L669.0 257.9Q669.8 258.1 670.8 258.4Q671.8 258.8 672.7 259.4Q673.6 260.1 674.1 261.1Q674.7 262.0 674.7 263.5L674.7 263.5Q674.7 265.1 673.9 266.5Q673.0 267.8 671.4 268.6Q669.7 269.4 667.4 269.4L667.4 269.4Q665.2 269.4 663.6 268.7Q662.0 267.9 661.1 266.7Q660.2 265.4 660.1 263.8L660.1 263.8L662.6 263.8Q662.7 264.9 663.4 265.7Q664.1 266.4 665.1 266.8Q666.2 267.1 667.4 267.1L667.4 267.1Q668.8 267.1 669.9 266.7Q671.0 266.2 671.7 265.4Q672.3 264.5 672.3 263.4L672.3 263.4Q672.3 262.4 671.8 261.8Q671.2 261.1 670.3 260.7Q669.4 260.3 668.3 260.1L668.3 260.1L665.8 259.3Q663.4 258.6 662.0 257.4Q660.6 256.1 660.6 254.0L660.6 254.0Q660.6 252.3 661.5 251.1Q662.5 249.8 664.0 249.1Q665.6 248.4 667.6 248.4L667.6 248.4Q669.5 248.4 671.1 249.1Q672.6 249.8 673.5 251.0Q674.4 252.2 674.5 253.7L674.5 253.7ZM684.7 269.3L684.7 269.3Q682.5 269.3 681.0 268.3Q679.4 267.3 678.6 265.5Q677.8 263.7 677.8 261.4L677.8 261.4Q677.8 259.1 678.6 257.3Q679.5 255.5 681.0 254.5Q682.6 253.5 684.6 253.5L684.6 253.5Q686.2 253.5 687.5 254.1Q688.8 254.7 689.7 255.8Q690.5 256.9 690.7 258.3L690.7 258.3L688.3 258.3Q688.1 257.3 687.1 256.4Q686.2 255.6 684.7 255.6L684.7 255.6Q683.3 255.6 682.3 256.3Q681.2 257.1 680.7 258.3Q680.1 259.6 680.1 261.4L680.1 261.4Q680.1 263.1 680.7 264.4Q681.2 265.8 682.3 266.5Q683.3 267.2 684.7 267.2L684.7 267.2Q685.6 267.2 686.3 266.9Q687.1 266.6 687.6 266.0Q688.1 265.4 688.3 264.5L688.3 264.5L690.7 264.5Q690.5 265.9 689.7 267.0Q688.9 268.1 687.6 268.7Q686.4 269.3 684.7 269.3ZM696.4 269L694.1 269L694.1 253.7L696.4 253.7L696.4 256.0L696.5 256.0Q696.9 254.9 698.0 254.2Q699.1 253.5 700.5 253.5L700.5 253.5Q700.8 253.5 701.2 253.5Q701.5 253.5 701.7 253.5L701.7 253.5L701.7 255.9Q701.6 255.9 701.2 255.8Q700.8 255.8 700.3 255.8L700.3 255.8Q699.2 255.8 698.3 256.2Q697.5 256.7 697.0 257.5Q696.4 258.3 696.4 259.3L696.4 259.3L696.4 269ZM706.9 269L704.5 269L704.5 253.7L706.9 253.7L706.9 269ZM705.7 251.2L705.7 251.2Q705.0 251.2 704.5 250.7Q704.0 250.2 704.0 249.6L704.0 249.6Q704.0 248.9 704.5 248.5Q705.0 248 705.7 248L705.7 248Q706.4 248 706.9 248.5Q707.4 248.9 707.4 249.6L707.4 249.6Q707.4 250.2 706.9 250.7Q706.4 251.2 705.7 251.2ZM713.5 274.7L711.2 274.7L711.2 253.7L713.4 253.7L713.4 256.2L713.7 256.2Q714.0 255.8 714.4 255.1Q714.9 254.5 715.8 254.0Q716.6 253.5 718.1 253.5L718.1 253.5Q720.1 253.5 721.5 254.5Q723.0 255.5 723.8 257.2Q724.6 259.0 724.6 261.4L724.6 261.4Q724.6 263.8 723.8 265.6Q723.0 267.4 721.5 268.3Q720.1 269.3 718.2 269.3L718.2 269.3Q716.7 269.3 715.8 268.8Q714.9 268.3 714.4 267.7Q714.0 267.1 713.7 266.7L713.7 266.7L713.5 266.7L713.5 274.7ZM713.5 261.4L713.5 261.4Q713.5 263.1 714.0 264.4Q714.5 265.7 715.5 266.5Q716.4 267.2 717.8 267.2L717.8 267.2Q719.3 267.2 720.3 266.4Q721.3 265.6 721.8 264.3Q722.3 263.0 722.3 261.4L722.3 261.4Q722.3 259.8 721.8 258.5Q721.3 257.2 720.3 256.4Q719.3 255.6 717.8 255.6L717.8 255.6Q716.4 255.6 715.4 256.4Q714.5 257.1 714.0 258.4Q713.5 259.7 713.5 261.4ZM727.0 253.7L734.9 253.7L734.9 255.7L727.0 255.7L727.0 253.7ZM729.3 265.3L729.3 250.1L731.6 250.1L731.6 264.6Q731.6 265.6 731.9 266.1Q732.2 266.6 732.7 266.8Q733.1 266.9 733.6 266.9L733.6 266.9Q734.0 266.9 734.3 266.9Q734.5 266.8 734.7 266.8L734.7 266.8L735.1 268.9Q734.9 269.0 734.5 269.1Q734.1 269.2 733.4 269.2L733.4 269.2Q732.4 269.2 731.5 268.8Q730.5 268.3 729.9 267.5Q729.3 266.6 729.3 265.3L729.3 265.3Z "/></g><mask id="satori_om-id-3"><rect x="279" y="306" width="242" height="29" fill="#fff"/></mask><g  ><path fill="#4B5563" d="M291.3 319.6L291.3 319.6L288.0 319.8Q287.9 319.4 287.7 319.1Q287.4 318.7 286.9 318.5Q286.5 318.3 285.8 318.3L285.8 318.3Q285.0 318.3 284.4 318.7Q283.8 319.0 283.8 319.6L283.8 319.6Q283.8 320.1 284.2 320.4Q284.6 320.7 285.5 320.9L285.5 320.9L287.9 321.4Q289.8 321.8 290.7 322.7Q291.6 323.5 291.6 324.9L291.6 324.9Q291.6 326.2 290.9 327.2Q290.1 328.2 288.8 328.7Q287.5 329.3 285.8 329.3L285.8 329.3Q283.2 329.3 281.7 328.2Q280.1 327.1 279.9 325.2L279.9 325.2L283.4 325.0Q283.6 325.8 284.2 326.2Q284.8 326.6 285.8 326.6L285.8 326.6Q286.8 326.6 287.4 326.3Q287.9 325.9 287.9 325.3L287.9 325.3Q287.9 324.8 287.5 324.5Q287.1 324.2 286.3 324.0L286.3 324.0L284.0 323.6Q282.1 323.2 281.2 322.2Q280.2 321.3 280.2 319.8L280.2 319.8Q280.2 318.6 280.9 317.6Q281.6 316.7 282.8 316.2Q284.1 315.7 285.8 315.7L285.8 315.7Q288.2 315.7 289.7 316.8Q291.1 317.8 291.3 319.6ZM302.3 323.4L302.3 323.4L302.3 315.9L306.0 315.9L306.0 329L302.5 329L302.5 326.6L302.3 326.6Q301.9 327.8 300.9 328.5Q299.8 329.2 298.4 329.2L298.4 329.2Q297.1 329.2 296.1 328.6Q295.1 328.0 294.5 326.9Q293.9 325.8 293.9 324.2L293.9 324.2L293.9 315.9L297.6 315.9L297.6 323.6Q297.6 324.8 298.2 325.4Q298.8 326.1 299.8 326.1L299.8 326.1Q300.5 326.1 301.1 325.8Q301.6 325.5 302.0 324.9Q302.3 324.3 302.3 323.4ZM314.5 322.5L312.1 325.2L312.2 320.9L312.7 320.9L316.9 315.9L321.0 315.9L315.4 322.5L314.5 322.5ZM312.5 329L308.9 329L308.9 311.5L312.5 311.5L312.5 329ZM321.3 329L317.0 329L313.2 323.3L315.6 320.7L321.3 329ZM326.4 321.4L326.4 321.4L326.4 329L322.8 329L322.8 311.5L326.3 311.5L326.3 318.2L326.5 318.2Q326.9 317.1 327.9 316.4Q328.9 315.7 330.4 315.7L330.4 315.7Q331.8 315.7 332.8 316.3Q333.8 316.9 334.4 318.0Q334.9 319.1 334.9 320.7L334.9 320.7L334.9 329L331.3 329L331.3 321.3Q331.3 320.1 330.7 319.4Q330.1 318.8 329.0 318.8L329.0 318.8Q328.2 318.8 327.7 319.1Q327.1 319.4 326.8 320.0Q326.5 320.6 326.4 321.4ZM345.7 315.9L349.5 315.9L344.9 329L340.9 329L336.3 315.9L340.1 315.9L342.8 325.3L343.0 325.3L345.7 315.9ZM355.0 329L351.4 329L351.4 315.9L355.0 315.9L355.0 329ZM353.2 314.2L353.2 314.2Q352.4 314.2 351.8 313.7Q351.2 313.1 351.2 312.4L351.2 312.4Q351.2 311.6 351.8 311.1Q352.4 310.5 353.2 310.5L353.2 310.5Q354.0 310.5 354.6 311.1Q355.2 311.6 355.2 312.4L355.2 312.4Q355.2 313.1 354.6 313.7Q354.0 314.2 353.2 314.2ZM361.5 329L357.9 329L357.9 315.9L361.4 315.9L361.4 318.2L361.6 318.2Q361.9 317.0 362.8 316.3Q363.6 315.7 364.7 315.7L364.7 315.7Q365.0 315.7 365.3 315.8Q365.6 315.8 365.9 315.8L365.9 315.8L365.9 319.1Q365.6 319.0 365.1 318.9Q364.7 318.9 364.3 318.9L364.3 318.9Q363.5 318.9 362.9 319.2Q362.3 319.6 361.9 320.2Q361.5 320.8 361.5 321.6L361.5 321.6L361.5 329ZM371.4 333.9L367.7 333.9L367.7 315.9L371.3 315.9L371.3 318.1L371.5 318.1Q371.7 317.6 372.2 317.0Q372.6 316.5 373.4 316.1Q374.1 315.7 375.2 315.7L375.2 315.7Q376.6 315.7 377.8 316.5Q379.0 317.2 379.8 318.7Q380.5 320.2 380.5 322.5L380.5 322.5Q380.5 324.7 379.8 326.2Q379.1 327.7 377.9 328.4Q376.7 329.2 375.2 329.2L375.2 329.2Q374.1 329.2 373.4 328.9Q372.6 328.5 372.2 328.0Q371.7 327.4 371.5 326.9L371.5 326.9L371.4 326.9L371.4 333.9ZM371.3 322.5L371.3 322.5Q371.3 323.6 371.6 324.5Q371.9 325.4 372.5 325.8Q373.2 326.3 374.0 326.3L374.0 326.3Q374.9 326.3 375.5 325.8Q376.1 325.3 376.5 324.5Q376.8 323.6 376.8 322.5L376.8 322.5Q376.8 321.3 376.5 320.5Q376.2 319.6 375.5 319.1Q374.9 318.6 374.0 318.6L374.0 318.6Q373.1 318.6 372.5 319.1Q371.9 319.6 371.6 320.4Q371.3 321.3 371.3 322.5ZM388.8 329.3L388.8 329.3Q386.8 329.3 385.4 328.4Q383.9 327.6 383.2 326.0Q382.4 324.5 382.4 322.5L382.4 322.5Q382.4 320.5 383.2 319.0Q383.9 317.4 385.4 316.6Q386.8 315.7 388.8 315.7L388.8 315.7Q390.8 315.7 392.2 316.6Q393.7 317.4 394.5 319.0Q395.3 320.5 395.3 322.5L395.3 322.5Q395.3 324.5 394.5 326.0Q393.7 327.6 392.2 328.4Q390.8 329.3 388.8 329.3ZM388.8 326.4L388.8 326.4Q389.7 326.4 390.3 325.9Q390.9 325.4 391.3 324.5Q391.6 323.6 391.6 322.5L391.6 322.5Q391.6 321.3 391.3 320.4Q390.9 319.5 390.3 319.0Q389.7 318.5 388.8 318.5L388.8 318.5Q387.9 318.5 387.3 319.0Q386.7 319.5 386.4 320.4Q386.1 321.3 386.1 322.5L386.1 322.5Q386.1 323.6 386.4 324.5Q386.7 325.4 387.3 325.9Q387.9 326.4 388.8 326.4ZM401.3 329L397.6 329L397.6 315.9L401.1 315.9L401.1 318.2L401.3 318.2Q401.6 317.0 402.5 316.3Q403.3 315.7 404.4 315.7L404.4 315.7Q404.7 315.7 405.0 315.8Q405.3 315.8 405.6 315.8L405.6 315.8L405.6 319.1Q405.3 319.0 404.9 318.9Q404.4 318.9 404.0 318.9L404.0 318.9Q403.2 318.9 402.6 319.2Q402.0 319.6 401.6 320.2Q401.3 320.8 401.3 321.6L401.3 321.6L401.3 329ZM407.2 315.9L415.1 315.9L415.1 318.6L407.2 318.6L407.2 315.9ZM409.0 325.5L409.0 312.8L412.6 312.8L412.6 325.0Q412.6 325.5 412.7 325.8Q412.9 326.0 413.2 326.1Q413.5 326.3 413.8 326.3L413.8 326.3Q414.1 326.3 414.3 326.2Q414.6 326.2 414.7 326.1L414.7 326.1L415.3 328.8Q415.0 328.9 414.5 329.0Q414.0 329.2 413.3 329.2L413.3 329.2Q412.0 329.2 411.0 328.8Q410.0 328.4 409.5 327.6Q409.0 326.7 409.0 325.5L409.0 325.5ZM416.4 315.9L424.5 315.9L424.5 318.6L416.4 318.6L416.4 315.9ZM421.8 329L418.2 329L418.2 315.0Q418.2 313.5 418.8 312.6Q419.3 311.7 420.3 311.2Q421.3 310.7 422.5 310.7L422.5 310.7Q423.4 310.7 424.1 310.9Q424.7 311.0 425.1 311.1L425.1 311.1L424.4 313.8Q424.2 313.7 423.9 313.7Q423.6 313.6 423.3 313.6L423.3 313.6Q422.5 313.6 422.2 314.0Q421.8 314.4 421.8 315.0L421.8 315.0L421.8 329ZM432.1 329.3L432.1 329.3Q430.1 329.3 428.7 328.4Q427.3 327.6 426.5 326.0Q425.7 324.5 425.7 322.5L425.7 322.5Q425.7 320.5 426.5 319.0Q427.3 317.4 428.7 316.6Q430.1 315.7 432.1 315.7L432.1 315.7Q434.1 315.7 435.6 316.6Q437.0 317.4 437.8 319.0Q438.6 320.5 438.6 322.5L438.6 322.5Q438.6 324.5 437.8 326.0Q437.0 327.6 435.6 328.4Q434.1 329.3 432.1 329.3ZM432.1 326.4L432.1 326.4Q433.0 326.4 433.7 325.9Q434.3 325.4 434.6 324.5Q434.9 323.6 434.9 322.5L434.9 322.5Q434.9 321.3 434.6 320.4Q434.3 319.5 433.7 319.0Q433.0 318.5 432.1 318.5L432.1 318.5Q431.2 318.5 430.6 319.0Q430.0 319.5 429.7 320.4Q429.4 321.3 429.4 322.5L429.4 322.5Q429.4 323.6 429.7 324.5Q430.0 325.4 430.6 325.9Q431.2 326.4 432.1 326.4ZM440.9 311.5L444.6 311.5L444.6 329L440.9 329L440.9 311.5ZM451.1 329L447.5 329L447.5 315.9L451.1 315.9L451.1 329ZM449.3 314.2L449.3 314.2Q448.5 314.2 447.9 313.7Q447.3 313.1 447.3 312.4L447.3 312.4Q447.3 311.6 447.9 311.1Q448.5 310.5 449.3 310.5L449.3 310.5Q450.1 310.5 450.7 311.1Q451.3 311.6 451.3 312.4L451.3 312.4Q451.3 313.1 450.7 313.7Q450.1 314.2 449.3 314.2ZM459.9 329.3L459.9 329.3Q457.9 329.3 456.5 328.4Q455.0 327.6 454.3 326.0Q453.5 324.5 453.5 322.5L453.5 322.5Q453.5 320.5 454.3 319.0Q455.0 317.4 456.5 316.6Q457.9 315.7 459.9 315.7L459.9 315.7Q461.9 315.7 463.3 316.6Q464.8 317.4 465.6 319.0Q466.4 320.5 466.4 322.5L466.4 322.5Q466.4 324.5 465.6 326.0Q464.8 327.6 463.3 328.4Q461.9 329.3 459.9 329.3ZM459.9 326.4L459.9 326.4Q460.8 326.4 461.4 325.9Q462.0 325.4 462.4 324.5Q462.7 323.6 462.7 322.5L462.7 322.5Q462.7 321.3 462.4 320.4Q462.0 319.5 461.4 319.0Q460.8 318.5 459.9 318.5L459.9 318.5Q459.0 318.5 458.4 319.0Q457.8 319.5 457.5 320.4Q457.2 321.3 457.2 322.5L457.2 322.5Q457.2 323.6 457.5 324.5Q457.8 325.4 458.4 325.9Q459.0 326.4 459.9 326.4ZM470.8 329.2L470.8 329.2Q470.0 329.2 469.4 328.6Q468.8 328.0 468.8 327.2L468.8 327.2Q468.8 326.3 469.4 325.7Q470.0 325.1 470.8 325.1L470.8 325.1Q471.7 325.1 472.3 325.7Q472.9 326.3 472.9 327.2L472.9 327.2Q472.9 327.7 472.6 328.2Q472.3 328.7 471.9 328.9Q471.4 329.2 470.8 329.2ZM479.5 329L475.9 329L475.9 315.9L479.5 315.9L479.5 329ZM477.7 314.2L477.7 314.2Q476.9 314.2 476.3 313.7Q475.7 313.1 475.7 312.4L475.7 312.4Q475.7 311.6 476.3 311.1Q476.9 310.5 477.7 310.5L477.7 310.5Q478.5 310.5 479.1 311.1Q479.7 311.6 479.7 312.4L479.7 312.4Q479.7 313.1 479.1 313.7Q478.5 314.2 477.7 314.2ZM486.0 321.4L486.0 321.4L486.0 329L482.4 329L482.4 315.9L485.9 315.9L485.9 318.2L486.0 318.2Q486.4 317.1 487.5 316.4Q488.5 315.7 489.9 315.7L489.9 315.7Q491.3 315.7 492.3 316.3Q493.3 316.9 493.9 318.0Q494.5 319.1 494.5 320.7L494.5 320.7L494.5 329L490.8 329L490.8 321.3Q490.8 320.1 490.2 319.4Q489.6 318.8 488.5 318.8L488.5 318.8Q487.8 318.8 487.2 319.1Q486.7 319.4 486.3 320.0Q486.0 320.6 486.0 321.4ZM496.3 315.9L504.4 315.9L504.4 318.6L496.3 318.6L496.3 315.9ZM501.7 329L498.1 329L498.1 315.0Q498.1 313.5 498.7 312.6Q499.2 311.7 500.2 311.2Q501.2 310.7 502.4 310.7L502.4 310.7Q503.3 310.7 504.0 310.9Q504.6 311.0 505.0 311.1L505.0 311.1L504.3 313.8Q504.1 313.7 503.8 313.7Q503.5 313.6 503.2 313.6L503.2 313.6Q502.4 313.6 502.1 314.0Q501.7 314.4 501.7 315.0L501.7 315.0L501.7 329ZM512.0 329.3L512.0 329.3Q510.0 329.3 508.6 328.4Q507.2 327.6 506.4 326.0Q505.6 324.5 505.6 322.5L505.6 322.5Q505.6 320.5 506.4 319.0Q507.2 317.4 508.6 316.6Q510.0 315.7 512.0 315.7L512.0 315.7Q514.0 315.7 515.5 316.6Q516.9 317.4 517.7 319.0Q518.5 320.5 518.5 322.5L518.5 322.5Q518.5 324.5 517.7 326.0Q516.9 327.6 515.5 328.4Q514.0 329.3 512.0 329.3ZM512.0 326.4L512.0 326.4Q512.9 326.4 513.6 325.9Q514.2 325.4 514.5 324.5Q514.8 323.6 514.8 322.5L514.8 322.5Q514.8 321.3 514.5 320.4Q514.2 319.5 513.6 319.0Q512.9 318.5 512.0 318.5L512.0 318.5Q511.1 318.5 510.5 319.0Q509.9 319.5 509.6 320.4Q509.3 321.3 509.3 322.5L509.3 322.5Q509.3 323.6 509.6 324.5Q509.9 325.4 510.5 325.9Q511.1 326.4 512.0 326.4Z "/></g></svg>